<mxfile host="app.diagrams.net" modified="2022-11-28T18:48:03.911Z" agent="5.0 (Macintosh; Intel Mac OS X 10_15_7) AppleWebKit/605.1.15 (KHTML, like Gecko) Version/16.1 Safari/605.1.15" etag="btKKVRZxoy6NoKuVfEys" version="20.6.0" type="github">
  <diagram id="eNZS70jyUGZoizKVgWdz" name="Page-1">
    <mxGraphModel dx="2484" dy="1854" grid="1" gridSize="10" guides="1" tooltips="1" connect="1" arrows="1" fold="1" page="1" pageScale="1" pageWidth="827" pageHeight="1169" math="0" shadow="0">
      <root>
        <mxCell id="0" />
        <mxCell id="1" parent="0" />
        <mxCell id="v_9w3W6UPImG4kx39gnx-10" value="&lt;font&gt;&lt;b&gt;&lt;font style=&quot;font-size: 24px;&quot;&gt;&lt;br&gt;&lt;br&gt;ms-cash-out&lt;/font&gt;&lt;br&gt;&lt;br&gt;POST (/api/v1/neighborhood_bank/cash-outs)&lt;br&gt;&lt;br&gt;&lt;br&gt;&lt;/b&gt;&lt;span style=&quot;font-size: 12px; caret-color: rgba(0, 0, 0, 0); color: rgba(0, 0, 0, 0); font-family: monospace; text-align: start;&quot;&gt;%3CmxGraphModel%3E%3Croot%3E%3CmxCell%20id%3D%220%22%2F%3E%3CmxCell%20id%3D%221%22%20parent%3D%220%22%2F%3E%3CmxCell%20id%3D%222%22%20value%3D%22%22%20style%3D%22endArrow%3Dclassic%3Bhtml%3D1%3Brounded%3D0%3BentryX%3D0%3BentryY%3D0.25%3BentryDx%3D0%3BentryDy%3D0%3BentryPerimeter%3D0%3B%22%20edge%3D%221%22%20parent%3D%221%22%3E%3CmxGeometry%20relative%3D%221%22%20as%3D%22geometry%22%3E%3CmxPoint%20x%3D%22110%22%20y%3D%22-769.9999999999999%22%20as%3D%22sourcePoint%22%2F%3E%3CmxPoint%20x%3D%22229.9999999999999%22%20y%3D%22-769.5%22%20as%3D%22targetPoint%22%2F%3E%3C%2FmxGeometry%3E%3C%2FmxCell%3E%3CmxCell%20id%3D%223%22%20value%3D%221%22%20style%3D%22edgeLabel%3Bresizable%3D0%3Bhtml%3D1%3Balign%3Dcenter%3BverticalAlign%3Dmiddle%3B%22%20connectable%3D%220%22%20vertex%3D%221%22%20parent%3D%222%22%3E%3CmxGeometry%20relative%3D%221%22%20as%3D%22geometry%22%2F%3E%3C%2FmxCell%3E%3C%2Froot%3E%3C%2FmxGraphModel%3E&lt;/span&gt;&lt;/font&gt;&lt;b&gt;&lt;br&gt;&lt;/b&gt;" style="rounded=0;whiteSpace=wrap;html=1;" parent="1" vertex="1">
          <mxGeometry x="460" y="-877" width="330" height="170" as="geometry" />
        </mxCell>
        <mxCell id="v_9w3W6UPImG4kx39gnx-12" value="" style="sketch=0;points=[[0,0,0],[0.25,0,0],[0.5,0,0],[0.75,0,0],[1,0,0],[0,1,0],[0.25,1,0],[0.5,1,0],[0.75,1,0],[1,1,0],[0,0.25,0],[0,0.5,0],[0,0.75,0],[1,0.25,0],[1,0.5,0],[1,0.75,0]];outlineConnect=0;fontColor=#232F3E;gradientColor=#FF4F8B;gradientDirection=north;fillColor=#BC1356;strokeColor=#ffffff;dashed=0;verticalLabelPosition=bottom;verticalAlign=top;align=center;html=1;fontSize=12;fontStyle=0;aspect=fixed;shape=mxgraph.aws4.resourceIcon;resIcon=mxgraph.aws4.api_gateway;" parent="1" vertex="1">
          <mxGeometry x="230" y="-810" width="78" height="78" as="geometry" />
        </mxCell>
        <mxCell id="v_9w3W6UPImG4kx39gnx-13" value="" style="sketch=0;outlineConnect=0;fontColor=#232F3E;gradientColor=none;fillColor=#232F3D;strokeColor=none;dashed=0;verticalLabelPosition=bottom;verticalAlign=top;align=center;html=1;fontSize=12;fontStyle=0;aspect=fixed;pointerEvents=1;shape=mxgraph.aws4.mobile_client;" parent="1" vertex="1">
          <mxGeometry x="60" y="-810" width="41" height="78" as="geometry" />
        </mxCell>
        <mxCell id="v_9w3W6UPImG4kx39gnx-17" value="" style="endArrow=classic;html=1;rounded=0;entryX=0;entryY=0.5;entryDx=0;entryDy=0;entryPerimeter=0;" parent="1" target="v_9w3W6UPImG4kx39gnx-12" edge="1">
          <mxGeometry relative="1" as="geometry">
            <mxPoint x="110" y="-770" as="sourcePoint" />
            <mxPoint x="220" y="-762" as="targetPoint" />
          </mxGeometry>
        </mxCell>
        <mxCell id="v_9w3W6UPImG4kx39gnx-18" value="1" style="edgeLabel;resizable=0;html=1;align=center;verticalAlign=middle;" parent="v_9w3W6UPImG4kx39gnx-17" connectable="0" vertex="1">
          <mxGeometry relative="1" as="geometry" />
        </mxCell>
        <mxCell id="v_9w3W6UPImG4kx39gnx-19" value="" style="endArrow=classic;html=1;rounded=0;" parent="1" edge="1">
          <mxGeometry relative="1" as="geometry">
            <mxPoint x="308" y="-768" as="sourcePoint" />
            <mxPoint x="438" y="-768" as="targetPoint" />
          </mxGeometry>
        </mxCell>
        <mxCell id="v_9w3W6UPImG4kx39gnx-20" value="2&lt;br&gt;" style="edgeLabel;resizable=0;html=1;align=center;verticalAlign=middle;" parent="v_9w3W6UPImG4kx39gnx-19" connectable="0" vertex="1">
          <mxGeometry relative="1" as="geometry" />
        </mxCell>
        <mxCell id="93yInw18t8VDDtlMFjhS-1" value="" style="shape=image;verticalLabelPosition=bottom;verticalAlign=top;imageAspect=0;image=data:image/png,iVBORw0KGgoAAAANSUhEUgAAAFAAAABQCAYAAACOEfKtAAAABmJLR0QA/wD/AP+gvaeTAAAICUlEQVR4nO2cz48URRTHPwsIKLs7C0xQYBeQX15QQQ1/AgeUk+IPRBGBEBdRAS8gooknDhIuJnhgg/wyRhFYAY0CGpc9qRiuxoOBC0Q2sCismIXx8F45tTVdPd0z0z2z0N9ksjv149WrN9VVr96PhgwZMmTIkCFDBoAuoFDms7tu3DU4csDflBfgDaCtTjyWYES9GbCwHBgHnAKaPJ9TwL3Asjrx2ND4FVlhz4a0eU7bnEuFo2GCUcBSRDCXgNFWXS/QY30frW0KwDPa965EDlgFHAOuUdzftjvteoAfnbLtVvtrwFfASqA1QX5TQROyh4VhAbAfOQiMEAaBn4AdQHuEcdq17c/a1z5c9gPzy/S/T3ltKDQBHwFXkcnNcuofA76hONmbwBHk0a1m5bQqjaNK09D/GvmxbMwEPgSuKK8NI0QjPFvVuAV0A0uAj/V7AfgT2AZMTICPvNK+bPGwS3notngwn4YQoi28AWA1ougOMJTZ68Bmyj/itUAzsEXHtHkYQBT1NRZ/dRWiK7xFVl0eEdh55FGdHoHeA8BWYJJV5p7Ck4B3gPsj0JuOPNoXlJe8VbeIOgsxTHg2RobQyAGzre9vKL2NVpl7Cm/SNuutsjlKywcfD3UTok94eWSCEyLSOQ78C3To92ZgBdAS0qdV2zTr92lK41jEMScqj2YProsQxyEnWQHZTwze1rI3Pf2aGCqcFcBeYEwVvIxRGi9ZZa34r6gbKF3lq7XsKuns0YCoAwVkUzaYgDyG4z199iIbexRdr1J06BifeOrHIzzaT8luZC47EuSrBDMRtWCAoZtzGDYhh0KSlpQ2HWNjuYaKPDKHW5TqromjG/nlNoe0mUd1j2i1aAHmhtRvRubQnQ47Q/GUDn6e4JPuYeA2cr2qFw4oD/MC6kYivBcQZbsiVGMPNIOeRR4BF38AB4EvqhijWnyhPPwRUHcLMaEBPJkaR4oFyEX+OvBg2oPXENMQK/gt4Ik0BzaGgS1O+UhgD9E38TSxEeHN3W62InM5kRYjCygaBly9KYesyjNpMRMDvQhvrvWnGehD9spH02DkACLAbZ76dsKvVvVCG34d9D1kTvuSZiKHGC5vkoxJql7II3MKWqE1xavIL3XEKW9FLB+vJDl4jbAS0ftcQRm9dmWSg39F0aFj4yHkVPZdoRoJexFe5zjlxuOXmFI9CujXwYOWeQflbx1NwPfAacItH72UOtSvAYconTiI2ctt3xPQDuWxI6C8DZlbPwl5+55Rxn6qgsZ8ihMMc/6ERSb0AVOd9kECdL15UfCL9l1aQd9A5IB1iCPbMOZaLfLAa4Tb8Qy2WHRcHdKGaWNjKmL3KwCfxegXhBagk1JDyA6Lxjlk7hVrFF0M9StcQnyyriqwjeib7xmLXpiu6BNEB0XbXZx+Lsxh6Kpi7cgcjfPe+HO6qACGwEkk3GK0p90U4C3KH/8TkT3mH/0M4leFwgRRaZ2NHGJcneypH43M+WQMmhUzExXLlN63wHf6/wsVjF0LAcZBKM00o7MW698TFO+diz1t7wi4knddjOXKbYxE7s4FxMA5l+J9OsiWmPQeCNHnU7MVeNtDyFduYyFy4v0O/Kaf37VsYcTx25FIA5AtoFpUM59IqOV+8oHS2mmV7dSyD0LG9umBswP62P1qiYY4RM7iF8jZkLHtTz/wOX7h1ZrnqmnGVWOaQ+rNYxH0ua1tasF0HEV6Q8C4BjVRY6Iq0u9rvc8Ss0rrjwbUHdW6VU550gJ8Rdu955TXVJGGaFe5+5FYFd8KPKT91gbUrdW6Q055GitwPUMDmaDGVzkXJo7555j9+rVfkAXEqCX9TnlcAcaxxoTBGBNcc11NcA9iUoprzgqKcy5XX65PEA1XgL7+5cxZV0kweN1YQ1xzz1yGj0F1D8KrG7HwPDI319oeirhXucP690Wn/CLi6jwdk1498AMSQ33RKTfJO4dJEK0UnUpRg4qGA/JInOF1otk1/0fcFXgN+BLRkzo9babQmG7NHKWWbIPXkT3+EPBX0ozMR5Tfy5SqLsbt2Zs0ExWgF+HNPQBbSNmxDrKHFAgO7ehCYgEbDZsQ3tyn7l1kLsfTZMYEF93gzgkuejztwXfhv6KBPBr7kTjCeuFpJBTFd0syV8ldnvpEsUQHb+QAy4NEC7Csy48cNcTX9+ungRaChWdQtxDfWVQWZN5D8kHmPUQ/xOwg85mVDFipU2md9j2IqDMgLspO/AJ6BMnaTHJFtugYD3vqJyA8mlSMy8CnyFzWJcjXEIxDLtwFJEnFoFyizQiG5pAsRwJ9xlbBy1gkps9OtBlPvESbNVp2hZQSbXypXhOVwTipXoOIKgHC/MuEO+hz2sZMtENpRE31mqA81jXVC2qXbGhHWnUqvbetMtfFaFa5fY0cdsmGBlHSXS8gutaMCPQmISZ2O9zCtQtO1jauJTkIM3Ts8zRguquBK8Q1yHUpKOF6K+moNC3I9Swo4Xo3sm83hPAMyqX876L4cog+ZAUlYQrLIw6uPh1rkGGQ8m9ghHgFyeR0daoFSDyMcW/eRCb1HNXphW2IJbkbsecZN+lxSgM4ZyFOo6s0mPAMmpBXioThUYppr2YlDCLOnLivPfmF0tee7KO8SWocDSi8uGhBEq6PUvTaFSh98U5QAJD94p1+itkBsSzJdxJGUYy/dl/95J7C9quflnIXv/opCNnLx6rEOoqxOD6YWBWfP+auxrB8AWOjIXsFaIYMGTJkyJAhIv4D4F/fEQnUP4MAAAAASUVORK5CYII=" vertex="1" parent="1">
          <mxGeometry x="440" y="-860" width="80" height="80" as="geometry" />
        </mxCell>
        <mxCell id="93yInw18t8VDDtlMFjhS-2" value="&lt;font&gt;&lt;b&gt;&lt;font style=&quot;font-size: 24px;&quot;&gt;&lt;br&gt;&lt;br&gt;ms-virtual-account&lt;/font&gt;&lt;br&gt;&lt;br&gt;Get (/api/v1/virtual_accounts/user_ids)&lt;br&gt;&lt;br&gt;&lt;/b&gt;&lt;span style=&quot;font-size: 12px; caret-color: rgba(0, 0, 0, 0); color: rgba(0, 0, 0, 0); font-family: monospace; text-align: start;&quot;&gt;%3CmxGraphModel%3E%3Croot%3E%3CmxCell%20id%3D%220%22%2F%3E%3CmxCell%20id%3D%221%22%20parent%3D%220%22%2F%3E%3CmxCell%20id%3D%222%22%20value%3D%22%22%20style%3D%22endArrow%3Dclassic%3Bhtml%3D1%3Brounded%3D0%3BentryX%3D0%3BentryY%3D0.25%3BentryDx%3D0%3BentryDy%3D0%3BentryPerimeter%3D0%3B%22%20edge%3D%221%22%20parent%3D%221%22%3E%3CmxGeometry%20relative%3D%221%22%20as%3D%22geometry%22%3E%3CmxPoint%20x%3D%22110%22%20y%3D%22-769.9999999999999%22%20as%3D%22sourcePoint%22%2F%3E%3CmxPoint%20x%3D%22229.9999999999999%22%20y%3D%22-769.5%22%20as%3D%22targetPoint%22%2F%3E%3C%2FmxGeometry%3E%3C%2FmxCell%3E%3CmxCell%20id%3D%223%22%20value%3D%221%22%20style%3D%22edgeLabel%3Bresizable%3D0%3Bhtml%3D1%3Balign%3Dcenter%3BverticalAlign%3Dmiddle%3B%22%20connectable%3D%220%22%20vertex%3D%221%22%20parent%3D%222%22%3E%3CmxGeometry%20relative%3D%221%22%20as%3D%22geometry%22%2F%3E%3C%2FmxCell%3E%3C%2Froot%3E%3C%2FmxGraphModel%3E&lt;/span&gt;&lt;/font&gt;&lt;b&gt;&lt;br&gt;&lt;/b&gt;" style="rounded=0;whiteSpace=wrap;html=1;" vertex="1" parent="1">
          <mxGeometry x="930" y="-877" width="380" height="170" as="geometry" />
        </mxCell>
        <mxCell id="93yInw18t8VDDtlMFjhS-3" value="" style="shape=image;verticalLabelPosition=bottom;verticalAlign=top;imageAspect=0;image=data:image/png,iVBORw0KGgoAAAANSUhEUgAAAFAAAABQCAYAAACOEfKtAAAABmJLR0QA/wD/AP+gvaeTAAAICUlEQVR4nO2cz48URRTHPwsIKLs7C0xQYBeQX15QQQ1/AgeUk+IPRBGBEBdRAS8gooknDhIuJnhgg/wyRhFYAY0CGpc9qRiuxoOBC0Q2sCismIXx8F45tTVdPd0z0z2z0N9ksjv149WrN9VVr96PhgwZMmTIkCFDBoAuoFDms7tu3DU4csDflBfgDaCtTjyWYES9GbCwHBgHnAKaPJ9TwL3Asjrx2ND4FVlhz4a0eU7bnEuFo2GCUcBSRDCXgNFWXS/QY30frW0KwDPa965EDlgFHAOuUdzftjvteoAfnbLtVvtrwFfASqA1QX5TQROyh4VhAbAfOQiMEAaBn4AdQHuEcdq17c/a1z5c9gPzy/S/T3ltKDQBHwFXkcnNcuofA76hONmbwBHk0a1m5bQqjaNK09D/GvmxbMwEPgSuKK8NI0QjPFvVuAV0A0uAj/V7AfgT2AZMTICPvNK+bPGwS3notngwn4YQoi28AWA1ougOMJTZ68Bmyj/itUAzsEXHtHkYQBT1NRZ/dRWiK7xFVl0eEdh55FGdHoHeA8BWYJJV5p7Ck4B3gPsj0JuOPNoXlJe8VbeIOgsxTHg2RobQyAGzre9vKL2NVpl7Cm/SNuutsjlKywcfD3UTok94eWSCEyLSOQ78C3To92ZgBdAS0qdV2zTr92lK41jEMScqj2YProsQxyEnWQHZTwze1rI3Pf2aGCqcFcBeYEwVvIxRGi9ZZa34r6gbKF3lq7XsKuns0YCoAwVkUzaYgDyG4z199iIbexRdr1J06BifeOrHIzzaT8luZC47EuSrBDMRtWCAoZtzGDYhh0KSlpQ2HWNjuYaKPDKHW5TqromjG/nlNoe0mUd1j2i1aAHmhtRvRubQnQ47Q/GUDn6e4JPuYeA2cr2qFw4oD/MC6kYivBcQZbsiVGMPNIOeRR4BF38AB4EvqhijWnyhPPwRUHcLMaEBPJkaR4oFyEX+OvBg2oPXENMQK/gt4Ik0BzaGgS1O+UhgD9E38TSxEeHN3W62InM5kRYjCygaBly9KYesyjNpMRMDvQhvrvWnGehD9spH02DkACLAbZ76dsKvVvVCG34d9D1kTvuSZiKHGC5vkoxJql7II3MKWqE1xavIL3XEKW9FLB+vJDl4jbAS0ftcQRm9dmWSg39F0aFj4yHkVPZdoRoJexFe5zjlxuOXmFI9CujXwYOWeQflbx1NwPfAacItH72UOtSvAYconTiI2ctt3xPQDuWxI6C8DZlbPwl5+55Rxn6qgsZ8ihMMc/6ERSb0AVOd9kECdL15UfCL9l1aQd9A5IB1iCPbMOZaLfLAa4Tb8Qy2WHRcHdKGaWNjKmL3KwCfxegXhBagk1JDyA6Lxjlk7hVrFF0M9StcQnyyriqwjeib7xmLXpiu6BNEB0XbXZx+Lsxh6Kpi7cgcjfPe+HO6qACGwEkk3GK0p90U4C3KH/8TkT3mH/0M4leFwgRRaZ2NHGJcneypH43M+WQMmhUzExXLlN63wHf6/wsVjF0LAcZBKM00o7MW698TFO+diz1t7wi4knddjOXKbYxE7s4FxMA5l+J9OsiWmPQeCNHnU7MVeNtDyFduYyFy4v0O/Kaf37VsYcTx25FIA5AtoFpUM59IqOV+8oHS2mmV7dSyD0LG9umBswP62P1qiYY4RM7iF8jZkLHtTz/wOX7h1ZrnqmnGVWOaQ+rNYxH0ua1tasF0HEV6Q8C4BjVRY6Iq0u9rvc8Ss0rrjwbUHdW6VU550gJ8Rdu955TXVJGGaFe5+5FYFd8KPKT91gbUrdW6Q055GitwPUMDmaDGVzkXJo7555j9+rVfkAXEqCX9TnlcAcaxxoTBGBNcc11NcA9iUoprzgqKcy5XX65PEA1XgL7+5cxZV0kweN1YQ1xzz1yGj0F1D8KrG7HwPDI319oeirhXucP690Wn/CLi6jwdk1498AMSQ33RKTfJO4dJEK0UnUpRg4qGA/JInOF1otk1/0fcFXgN+BLRkzo9babQmG7NHKWWbIPXkT3+EPBX0ozMR5Tfy5SqLsbt2Zs0ExWgF+HNPQBbSNmxDrKHFAgO7ehCYgEbDZsQ3tyn7l1kLsfTZMYEF93gzgkuejztwXfhv6KBPBr7kTjCeuFpJBTFd0syV8ldnvpEsUQHb+QAy4NEC7Csy48cNcTX9+ungRaChWdQtxDfWVQWZN5D8kHmPUQ/xOwg85mVDFipU2md9j2IqDMgLspO/AJ6BMnaTHJFtugYD3vqJyA8mlSMy8CnyFzWJcjXEIxDLtwFJEnFoFyizQiG5pAsRwJ9xlbBy1gkps9OtBlPvESbNVp2hZQSbXypXhOVwTipXoOIKgHC/MuEO+hz2sZMtENpRE31mqA81jXVC2qXbGhHWnUqvbetMtfFaFa5fY0cdsmGBlHSXS8gutaMCPQmISZ2O9zCtQtO1jauJTkIM3Ts8zRguquBK8Q1yHUpKOF6K+moNC3I9Swo4Xo3sm83hPAMyqX876L4cog+ZAUlYQrLIw6uPh1rkGGQ8m9ghHgFyeR0daoFSDyMcW/eRCb1HNXphW2IJbkbsecZN+lxSgM4ZyFOo6s0mPAMmpBXioThUYppr2YlDCLOnLivPfmF0tee7KO8SWocDSi8uGhBEq6PUvTaFSh98U5QAJD94p1+itkBsSzJdxJGUYy/dl/95J7C9quflnIXv/opCNnLx6rEOoqxOD6YWBWfP+auxrB8AWOjIXsFaIYMGTJkyJAhIv4D4F/fEQnUP4MAAAAASUVORK5CYII=" vertex="1" parent="1">
          <mxGeometry x="890" y="-860" width="80" height="80" as="geometry" />
        </mxCell>
        <mxCell id="93yInw18t8VDDtlMFjhS-4" value="&lt;font&gt;&lt;b&gt;&lt;font style=&quot;font-size: 24px;&quot;&gt;&lt;br&gt;&lt;br&gt;ms-bank-integrations&lt;/font&gt;&lt;br&gt;&lt;br&gt;Post (v1/movimientos/cashout)&lt;br&gt;&lt;br&gt;&lt;/b&gt;&lt;span style=&quot;font-size: 12px; caret-color: rgba(0, 0, 0, 0); color: rgba(0, 0, 0, 0); font-family: monospace; text-align: start;&quot;&gt;%3CmxGraphModel%3E%3Croot%3E%3CmxCell%20id%3D%220%22%2F%3E%3CmxCell%20id%3D%221%22%20parent%3D%220%22%2F%3E%3CmxCell%20id%3D%222%22%20value%3D%22%22%20style%3D%22endArrow%3Dclassic%3Bhtml%3D1%3Brounded%3D0%3BentryX%3D0%3BentryY%3D0.25%3BentryDx%3D0%3BentryDy%3D0%3BentryPerimeter%3D0%3B%22%20edge%3D%221%22%20parent%3D%221%22%3E%3CmxGeometry%20relative%3D%221%22%20as%3D%22geometry%22%3E%3CmxPoint%20x%3D%22110%22%20y%3D%22-769.9999999999999%22%20as%3D%22sourcePoint%22%2F%3E%3CmxPoint%20x%3D%22229.9999999999999%22%20y%3D%22-769.5%22%20as%3D%22targetPoint%22%2F%3E%3C%2FmxGeometry%3E%3C%2FmxCell%3E%3CmxCell%20id%3D%223%22%20value%3D%221%22%20style%3D%22edgeLabel%3Bresizable%3D0%3Bhtml%3D1%3Balign%3Dcenter%3BverticalAlign%3Dmiddle%3B%22%20connectable%3D%220%22%20vertex%3D%221%22%20parent%3D%222%22%3E%3CmxGeometry%20relative%3D%221%22%20as%3D%22geometry%22%2F%3E%3C%2FmxCell%3E%3C%2Froot%3E%3C%2FmxGraphModel%3E&lt;/span&gt;&lt;/font&gt;&lt;b&gt;&lt;br&gt;&lt;/b&gt;" style="rounded=0;whiteSpace=wrap;html=1;" vertex="1" parent="1">
          <mxGeometry x="1460" y="-883" width="400" height="176" as="geometry" />
        </mxCell>
        <mxCell id="93yInw18t8VDDtlMFjhS-5" value="" style="shape=image;verticalLabelPosition=bottom;verticalAlign=top;imageAspect=0;image=data:image/png,iVBORw0KGgoAAAANSUhEUgAAAFAAAABQCAYAAACOEfKtAAAABmJLR0QA/wD/AP+gvaeTAAAICUlEQVR4nO2cz48URRTHPwsIKLs7C0xQYBeQX15QQQ1/AgeUk+IPRBGBEBdRAS8gooknDhIuJnhgg/wyRhFYAY0CGpc9qRiuxoOBC0Q2sCismIXx8F45tTVdPd0z0z2z0N9ksjv149WrN9VVr96PhgwZMmTIkCFDBoAuoFDms7tu3DU4csDflBfgDaCtTjyWYES9GbCwHBgHnAKaPJ9TwL3Asjrx2ND4FVlhz4a0eU7bnEuFo2GCUcBSRDCXgNFWXS/QY30frW0KwDPa965EDlgFHAOuUdzftjvteoAfnbLtVvtrwFfASqA1QX5TQROyh4VhAbAfOQiMEAaBn4AdQHuEcdq17c/a1z5c9gPzy/S/T3ltKDQBHwFXkcnNcuofA76hONmbwBHk0a1m5bQqjaNK09D/GvmxbMwEPgSuKK8NI0QjPFvVuAV0A0uAj/V7AfgT2AZMTICPvNK+bPGwS3notngwn4YQoi28AWA1ougOMJTZ68Bmyj/itUAzsEXHtHkYQBT1NRZ/dRWiK7xFVl0eEdh55FGdHoHeA8BWYJJV5p7Ck4B3gPsj0JuOPNoXlJe8VbeIOgsxTHg2RobQyAGzre9vKL2NVpl7Cm/SNuutsjlKywcfD3UTok94eWSCEyLSOQ78C3To92ZgBdAS0qdV2zTr92lK41jEMScqj2YProsQxyEnWQHZTwze1rI3Pf2aGCqcFcBeYEwVvIxRGi9ZZa34r6gbKF3lq7XsKuns0YCoAwVkUzaYgDyG4z199iIbexRdr1J06BifeOrHIzzaT8luZC47EuSrBDMRtWCAoZtzGDYhh0KSlpQ2HWNjuYaKPDKHW5TqromjG/nlNoe0mUd1j2i1aAHmhtRvRubQnQ47Q/GUDn6e4JPuYeA2cr2qFw4oD/MC6kYivBcQZbsiVGMPNIOeRR4BF38AB4EvqhijWnyhPPwRUHcLMaEBPJkaR4oFyEX+OvBg2oPXENMQK/gt4Ik0BzaGgS1O+UhgD9E38TSxEeHN3W62InM5kRYjCygaBly9KYesyjNpMRMDvQhvrvWnGehD9spH02DkACLAbZ76dsKvVvVCG34d9D1kTvuSZiKHGC5vkoxJql7II3MKWqE1xavIL3XEKW9FLB+vJDl4jbAS0ftcQRm9dmWSg39F0aFj4yHkVPZdoRoJexFe5zjlxuOXmFI9CujXwYOWeQflbx1NwPfAacItH72UOtSvAYconTiI2ctt3xPQDuWxI6C8DZlbPwl5+55Rxn6qgsZ8ihMMc/6ERSb0AVOd9kECdL15UfCL9l1aQd9A5IB1iCPbMOZaLfLAa4Tb8Qy2WHRcHdKGaWNjKmL3KwCfxegXhBagk1JDyA6Lxjlk7hVrFF0M9StcQnyyriqwjeib7xmLXpiu6BNEB0XbXZx+Lsxh6Kpi7cgcjfPe+HO6qACGwEkk3GK0p90U4C3KH/8TkT3mH/0M4leFwgRRaZ2NHGJcneypH43M+WQMmhUzExXLlN63wHf6/wsVjF0LAcZBKM00o7MW698TFO+diz1t7wi4knddjOXKbYxE7s4FxMA5l+J9OsiWmPQeCNHnU7MVeNtDyFduYyFy4v0O/Kaf37VsYcTx25FIA5AtoFpUM59IqOV+8oHS2mmV7dSyD0LG9umBswP62P1qiYY4RM7iF8jZkLHtTz/wOX7h1ZrnqmnGVWOaQ+rNYxH0ua1tasF0HEV6Q8C4BjVRY6Iq0u9rvc8Ss0rrjwbUHdW6VU550gJ8Rdu955TXVJGGaFe5+5FYFd8KPKT91gbUrdW6Q055GitwPUMDmaDGVzkXJo7555j9+rVfkAXEqCX9TnlcAcaxxoTBGBNcc11NcA9iUoprzgqKcy5XX65PEA1XgL7+5cxZV0kweN1YQ1xzz1yGj0F1D8KrG7HwPDI319oeirhXucP690Wn/CLi6jwdk1498AMSQ33RKTfJO4dJEK0UnUpRg4qGA/JInOF1otk1/0fcFXgN+BLRkzo9babQmG7NHKWWbIPXkT3+EPBX0ozMR5Tfy5SqLsbt2Zs0ExWgF+HNPQBbSNmxDrKHFAgO7ehCYgEbDZsQ3tyn7l1kLsfTZMYEF93gzgkuejztwXfhv6KBPBr7kTjCeuFpJBTFd0syV8ldnvpEsUQHb+QAy4NEC7Csy48cNcTX9+ungRaChWdQtxDfWVQWZN5D8kHmPUQ/xOwg85mVDFipU2md9j2IqDMgLspO/AJ6BMnaTHJFtugYD3vqJyA8mlSMy8CnyFzWJcjXEIxDLtwFJEnFoFyizQiG5pAsRwJ9xlbBy1gkps9OtBlPvESbNVp2hZQSbXypXhOVwTipXoOIKgHC/MuEO+hz2sZMtENpRE31mqA81jXVC2qXbGhHWnUqvbetMtfFaFa5fY0cdsmGBlHSXS8gutaMCPQmISZ2O9zCtQtO1jauJTkIM3Ts8zRguquBK8Q1yHUpKOF6K+moNC3I9Swo4Xo3sm83hPAMyqX876L4cog+ZAUlYQrLIw6uPh1rkGGQ8m9ghHgFyeR0daoFSDyMcW/eRCb1HNXphW2IJbkbsecZN+lxSgM4ZyFOo6s0mPAMmpBXioThUYppr2YlDCLOnLivPfmF0tee7KO8SWocDSi8uGhBEq6PUvTaFSh98U5QAJD94p1+itkBsSzJdxJGUYy/dl/95J7C9quflnIXv/opCNnLx6rEOoqxOD6YWBWfP+auxrB8AWOjIXsFaIYMGTJkyJAhIv4D4F/fEQnUP4MAAAAASUVORK5CYII=" vertex="1" parent="1">
          <mxGeometry x="1460" y="-877" width="80" height="80" as="geometry" />
        </mxCell>
      </root>
    </mxGraphModel>
  </diagram>
</mxfile>
